<?xml version="1.0" encoding="UTF-8" standalone="no"?>
<!-- Generated by IcoMoon.io -->

<svg
   xmlns:dc="http://purl.org/dc/elements/1.1/"
   xmlns:cc="http://creativecommons.org/ns#"
   xmlns:rdf="http://www.w3.org/1999/02/22-rdf-syntax-ns#"
   xmlns:svg="http://www.w3.org/2000/svg"
   xmlns="http://www.w3.org/2000/svg"
   xmlns:sodipodi="http://sodipodi.sourceforge.net/DTD/sodipodi-0.dtd"
   xmlns:inkscape="http://www.inkscape.org/namespaces/inkscape"
   version="1.1"
   width="16"
   height="16"
   viewBox="0 0 16 16"
   id="svg2"
   inkscape:version="0.91 r13725"
   sodipodi:docname="Big.svg">
  <metadata
     id="metadata12">
    <rdf:RDF>
      <cc:Work
         rdf:about="">
        <dc:format>image/svg+xml</dc:format>
        <dc:type
           rdf:resource="http://purl.org/dc/dcmitype/StillImage" />
        <dc:title></dc:title>
      </cc:Work>
    </rdf:RDF>
  </metadata>
  <defs
     id="defs10" />
  <sodipodi:namedview
     pagecolor="#ffffff"
     bordercolor="#666666"
     borderopacity="1"
     objecttolerance="10"
     gridtolerance="10"
     guidetolerance="10"
     inkscape:pageopacity="0"
     inkscape:pageshadow="2"
     inkscape:window-width="1600"
     inkscape:window-height="821"
     id="namedview8"
     showgrid="false"
     inkscape:zoom="20.85965"
     inkscape:cx="-1.3637015"
     inkscape:cy="7.0348185"
     inkscape:window-x="-9"
     inkscape:window-y="-9"
     inkscape:window-maximized="1"
     inkscape:current-layer="svg2" />
  <path
     style="fill:#000000;fill-opacity:1;fill-rule:nonzero;stroke:none;stroke-opacity:1"
     d="M 8.2133166,1.5905764 2.6799252,4.5628259 c -0.079381,0 -0.1422687,0.059354 -0.1422687,0.1336606 l 0,9.2792185 c 0,0.07431 0.062893,0.13366 0.1422687,0.13366 l 11.4526328,0 c 0.07938,0 0.144425,-0.05936 0.144425,-0.13366 l 0,-9.2792185 c 0,-0.074303 -0.07448,-0.098547 -0.144425,-0.1336606 L 8.2133166,1.5905764 Z m 0.049579,1.6809521 4.3995534,2.1748166 c 0.05197,0.025684 0.105624,0.043064 0.105624,0.097414 l 0,6.7872399 c 0,0.05435 -0.04663,0.09742 -0.105624,0.09741 l -8.5102575,0 c -0.058984,0 -0.1077793,-0.04306 -0.1077793,-0.09741 l 0,-6.7872399 c 0,-0.054352 0.048792,-0.097414 0.1077793,-0.097414 L 8.2628951,3.2715285 Z"
     id="path4059"
     inkscape:connector-curvature="0" />
</svg>
