<?xml version="1.0" encoding="UTF-8" standalone="no"?>
<!-- Generated by IcoMoon.io -->

<svg
   xmlns:dc="http://purl.org/dc/elements/1.1/"
   xmlns:cc="http://creativecommons.org/ns#"
   xmlns:rdf="http://www.w3.org/1999/02/22-rdf-syntax-ns#"
   xmlns:svg="http://www.w3.org/2000/svg"
   xmlns="http://www.w3.org/2000/svg"
   xmlns:sodipodi="http://sodipodi.sourceforge.net/DTD/sodipodi-0.dtd"
   xmlns:inkscape="http://www.inkscape.org/namespaces/inkscape"
   version="1.1"
   width="16"
   height="16"
   viewBox="0 0 16 16"
   id="svg2"
   inkscape:version="0.91 r13725"
   sodipodi:docname="Children.svg">
  <metadata
     id="metadata12">
    <rdf:RDF>
      <cc:Work
         rdf:about="">
        <dc:format>image/svg+xml</dc:format>
        <dc:type
           rdf:resource="http://purl.org/dc/dcmitype/StillImage" />
        <dc:title></dc:title>
      </cc:Work>
    </rdf:RDF>
  </metadata>
  <defs
     id="defs10" />
  <sodipodi:namedview
     pagecolor="#ffffff"
     bordercolor="#666666"
     borderopacity="1"
     objecttolerance="10"
     gridtolerance="10"
     guidetolerance="10"
     inkscape:pageopacity="0"
     inkscape:pageshadow="2"
     inkscape:window-width="1600"
     inkscape:window-height="821"
     id="namedview8"
     showgrid="false"
     inkscape:zoom="20.85965"
     inkscape:cx="-1.3637015"
     inkscape:cy="7.0348185"
     inkscape:window-x="-9"
     inkscape:window-y="-9"
     inkscape:window-maximized="1"
     inkscape:current-layer="svg2" />
  <g
     transform="matrix(1.1596735,0,0,1.1244009,-20.385377,0.20951542)"
     id="g3367">
    <circle
       style="fill:#000000;fill-opacity:1;fill-rule:nonzero;stroke:none;stroke-opacity:1"
       id="circle3369"
       cx="22.705458"
       cy="3.8463874"
       r="1.8696384" />
    <path
       style="fill:#000000;fill-opacity:1;fill-rule:nonzero;stroke:none;stroke-opacity:1"
       inkscape:transform-center-x="-0.015345109"
       inkscape:transform-center-y="-1.0801582"
       d="m 20.035182,12.381536 c 0,0 0.330709,-6.4347563 2.686254,-6.4494973 2.355545,-0.01474 2.880019,6.4398003 2.880019,6.4398003 z"
       id="path3371"
       inkscape:connector-curvature="0"
       sodipodi:nodetypes="cccc" />
    <ellipse
       cy="5.4783835"
       cx="26.739338"
       id="ellipse3373"
       style="fill:#000000;fill-opacity:1;fill-rule:nonzero;stroke:none;stroke-opacity:1"
       rx="1.5556449"
       ry="1.5121472" />
    <path
       sodipodi:nodetypes="cccc"
       inkscape:connector-curvature="0"
       id="path3375"
       d="m 24.51752,12.381536 c 0,0 0.275168,-5.2043743 2.235115,-5.2162963 1.959946,-0.01192 2.396338,5.2084533 2.396338,5.2084533 z"
       inkscape:transform-center-y="-0.87362243"
       inkscape:transform-center-x="-0.012768064"
       style="fill:#000000;fill-opacity:1;fill-rule:nonzero;stroke:none;stroke-opacity:1" />
    <path
       sodipodi:type="star"
       style="fill:#000000;fill-opacity:1;fill-rule:nonzero;stroke:none;stroke-opacity:1"
       id="path3377"
       sodipodi:sides="3"
       sodipodi:cx="28.097939"
       sodipodi:cy="3.9556022"
       sodipodi:r1="0.65204692"
       sodipodi:r2="0.41176197"
       sodipodi:arg1="0.94200004"
       sodipodi:arg2="2.142599"
       inkscape:flatsided="false"
       inkscape:rounded="0.05"
       inkscape:randomized="0"
       d="m 28.481454,4.482936 c -0.02813,0.014481 -0.577429,-0.1682168 -0.60634,-0.1810721 -0.02322,-0.010325 -0.426842,-0.2524114 -0.425618,-0.2777945 0.0015,-0.031603 0.434395,-0.41596 0.459983,-0.4345698 0.02055,-0.014947 0.432016,-0.2434506 0.453386,-0.2296986 0.02661,0.017122 0.143035,0.5841769 0.146357,0.615642 0.0027,0.025272 -0.0052,0.495862 -0.02777,0.507493 z"
       inkscape:transform-center-x="0.16212246"
       inkscape:transform-center-y="-0.049751485" />
    <path
       inkscape:transform-center-y="0.049751512"
       inkscape:transform-center-x="-0.16212274"
       d="m -28.310483,-4.2052868 c -0.02813,0.014481 -0.577429,-0.1682169 -0.60634,-0.1810722 -0.02322,-0.010325 -0.426842,-0.2524114 -0.425618,-0.2777944 0.0015,-0.031603 0.434395,-0.4159601 0.459984,-0.4345698 0.02055,-0.014947 0.432015,-0.2434507 0.453385,-0.2296987 0.02661,0.017122 0.143035,0.584177 0.146357,0.615642 0.0027,0.025272 -0.0052,0.495862 -0.02777,0.5074931 z"
       inkscape:randomized="0"
       inkscape:rounded="0.05"
       inkscape:flatsided="false"
       sodipodi:arg2="2.142599"
       sodipodi:arg1="0.94200004"
       sodipodi:r2="0.41176197"
       sodipodi:r1="0.65204692"
       sodipodi:cy="-4.7326207"
       sodipodi:cx="-28.693998"
       sodipodi:sides="3"
       id="path3379"
       style="fill:#000000;fill-opacity:1;fill-rule:nonzero;stroke:none;stroke-opacity:1"
       sodipodi:type="star"
       transform="scale(-1,-1)" />
  </g>
</svg>
