<?xml version="1.0" encoding="UTF-8" standalone="no"?>
<!-- Generated by IcoMoon.io -->

<svg
   xmlns:dc="http://purl.org/dc/elements/1.1/"
   xmlns:cc="http://creativecommons.org/ns#"
   xmlns:rdf="http://www.w3.org/1999/02/22-rdf-syntax-ns#"
   xmlns:svg="http://www.w3.org/2000/svg"
   xmlns="http://www.w3.org/2000/svg"
   xmlns:sodipodi="http://sodipodi.sourceforge.net/DTD/sodipodi-0.dtd"
   xmlns:inkscape="http://www.inkscape.org/namespaces/inkscape"
   version="1.1"
   width="16"
   height="16"
   viewBox="0 0 16 16"
   id="svg2"
   inkscape:version="0.91 r13725"
   sodipodi:docname="Environment.svg">
  <metadata
     id="metadata12">
    <rdf:RDF>
      <cc:Work
         rdf:about="">
        <dc:format>image/svg+xml</dc:format>
        <dc:type
           rdf:resource="http://purl.org/dc/dcmitype/StillImage" />
        <dc:title></dc:title>
      </cc:Work>
    </rdf:RDF>
  </metadata>
  <defs
     id="defs10" />
  <sodipodi:namedview
     pagecolor="#ffffff"
     bordercolor="#666666"
     borderopacity="1"
     objecttolerance="10"
     gridtolerance="10"
     guidetolerance="10"
     inkscape:pageopacity="0"
     inkscape:pageshadow="2"
     inkscape:window-width="1600"
     inkscape:window-height="821"
     id="namedview8"
     showgrid="false"
     inkscape:zoom="83.4386"
     inkscape:cx="13.883842"
     inkscape:cy="10.758365"
     inkscape:window-x="-9"
     inkscape:window-y="-9"
     inkscape:window-maximized="1"
     inkscape:current-layer="svg2" />
  <path
     style="fill:#000000;fill-opacity:1;fill-rule:nonzero;stroke:none;stroke-opacity:1"
     d="M 11.750179,1.8234087 C 10.347786,1.8315428 8.9513562,2.1566412 7.6576109,2.6911071 5.1179823,3.7664814 3.8045498,6.3728976 4.3636498,9.2669485 c 0.2080504,1.0210445 0.9278736,1.8590375 1.80158,2.3909975 0.2113651,0.121968 0.4370944,0.221622 0.6715481,0.303885 C 6.7405,11.237948 6.6709793,10.576075 6.6217866,10.31775 6.0681653,7.251495 7.9385712,3.8209607 10.453312,2.6815979 11.53036,2.205515 11.945874,2.0610327 12.554096,2.0524109 c 0.218561,-0.0031 0.23935,-0.00508 0.658813,0.022031 C 12.414561,2.2311546 12.042217,2.1603327 11.132843,2.610094 10.389296,2.9778399 9.9144176,3.2778254 9.2232772,3.9078773 8.40354,4.684806 7.2235541,6.9061666 6.9928281,7.9625045 6.8256516,8.7279019 6.9849081,11.053486 7.3860926,12.117399 8.6837265,12.389243 10.164717,12.103619 11.26367,11.224096 12.852234,10.00019 12.99166,8.0134211 12.745422,5.9599436 12.741853,4.3999459 12.171351,3.36666 13.251738,2.0606257 12.84683,1.9221184 12.775892,1.8983841 12.35119,1.8398364 12.150882,1.827743 11.950522,1.8222483 11.750179,1.8234087 Z M 7.3860926,12.117399 C 7.1982243,12.078039 7.015239,12.024449 6.8367779,11.961831 6.9456588,12.780497 7.089806,13.681463 7.290918,14.2219 c 0.3657554,0.982881 0.927604,0.658984 0.927604,0.658984 0,0 -0.2721814,-1.360443 -0.8126207,-2.707925 -0.00687,-0.01717 -0.01306,-0.03766 -0.019809,-0.05556 z"
     id="path4333"
     inkscape:connector-curvature="0"
     sodipodi:nodetypes="sccccccscscscccccsccsccc" />
</svg>
