<?xml version="1.0" encoding="UTF-8" standalone="no"?>
<!-- Generated by IcoMoon.io -->

<svg
   xmlns:dc="http://purl.org/dc/elements/1.1/"
   xmlns:cc="http://creativecommons.org/ns#"
   xmlns:rdf="http://www.w3.org/1999/02/22-rdf-syntax-ns#"
   xmlns:svg="http://www.w3.org/2000/svg"
   xmlns="http://www.w3.org/2000/svg"
   xmlns:sodipodi="http://sodipodi.sourceforge.net/DTD/sodipodi-0.dtd"
   xmlns:inkscape="http://www.inkscape.org/namespaces/inkscape"
   version="1.1"
   width="16"
   height="16"
   viewBox="0 0 16 16"
   id="svg2"
   inkscape:version="0.91 r13725"
   sodipodi:docname="Global.svg">
  <metadata
     id="metadata12">
    <rdf:RDF>
      <cc:Work
         rdf:about="">
        <dc:format>image/svg+xml</dc:format>
        <dc:type
           rdf:resource="http://purl.org/dc/dcmitype/StillImage" />
        <dc:title></dc:title>
      </cc:Work>
    </rdf:RDF>
  </metadata>
  <defs
     id="defs10" />
  <sodipodi:namedview
     pagecolor="#ffffff"
     bordercolor="#666666"
     borderopacity="1"
     objecttolerance="10"
     gridtolerance="10"
     guidetolerance="10"
     inkscape:pageopacity="0"
     inkscape:pageshadow="2"
     inkscape:window-width="1600"
     inkscape:window-height="821"
     id="namedview8"
     showgrid="false"
     inkscape:zoom="20.85965"
     inkscape:cx="-1.3637015"
     inkscape:cy="7.0348185"
     inkscape:window-x="-9"
     inkscape:window-y="-9"
     inkscape:window-maximized="1"
     inkscape:current-layer="svg2" />
  <path
     inkscape:connector-curvature="0"
     style="fill:#000000;fill-opacity:1;fill-rule:nonzero;stroke:none;stroke-opacity:1"
     d="M 6.9249199,2.5998469 A 5.6640625,5.5977712 0 0 0 2.3897639,8.0783626 5.6640625,5.5977712 0 0 0 8.0538269,13.676019 5.6640625,5.5977712 0 0 0 13.717889,8.0783626 5.6640625,5.5977712 0 0 0 13.58117,6.8850032 c 0.01751,0.1713769 0.03481,0.3365964 0.03516,0.5566406 l 0,0.5292969 -0.113282,0.1152343 c -0.06222,0.063904 -0.141414,0.1564702 -0.175781,0.2050782 -0.05379,0.076079 -0.07684,0.084089 -0.167969,0.0625 -0.158149,-0.037461 -0.257141,-0.152442 -0.40039,-0.4726563 -0.126143,-0.2819753 -0.129158,-0.3001742 -0.140625,-0.7148437 -0.01007,-0.3627497 -0.02266,-0.4537077 -0.0918,-0.6230469 -0.04453,-0.1090539 -0.07325,-0.2278876 -0.06445,-0.2636719 0.01881,-0.076549 0.0088,-0.077959 -0.07617,-0.021484 -0.08254,0.054848 -0.219067,-0.020978 -0.279297,-0.1542968 -0.02291,-0.050716 -0.05566,-0.091797 -0.07227,-0.091797 -0.04881,0 -0.03351,-0.2110745 0.01953,-0.2734375 0.0896,-0.10536 -0.0039,-0.2018142 -0.197266,-0.203125 -0.07935,-5.381e-4 -0.107422,-0.059844 -0.107422,-0.2285156 0,-0.137864 -0.0931,-0.3164502 -0.205078,-0.3945313 -0.05322,-0.037113 -0.0881,-0.1091808 -0.113281,-0.234375 -0.01986,-0.098796 -0.07011,-0.2314644 -0.111329,-0.296875 -0.04123,-0.065411 -0.09326,-0.1623533 -0.117187,-0.2148437 -0.04588,-0.1006567 -0.362274,-0.2840588 -0.394531,-0.2285156 -0.0094,0.016332 -0.0031,0.040435 0.01563,0.052734 0.02332,0.015333 0.02447,0.035678 0.002,0.064453 -0.02412,0.030931 0.0059,0.072407 0.117187,0.1582032 0.08302,0.064027 0.194425,0.141506 0.246094,0.171875 l 0.09375,0.054687 -0.09961,0.054687 c -0.05448,0.029974 -0.104478,0.071886 -0.111328,0.09375 -0.0084,0.027223 -0.05273,0.032783 -0.138672,0.015625 -0.09462,-0.018885 -0.164354,-0.0702 -0.285206,-0.2070302 C 10.539502,4.274351 10.420331,4.1825656 10.280389,4.1154719 10.166232,4.0607402 10.03836,3.9777051 9.9971862,3.929925 l -0.07422,-0.087891 0.07422,-0.048828 C 10.038346,3.765682 10.126639,3.73323 10.192498,3.72094 c 0.07537,-0.014061 0.119141,-0.042374 0.119141,-0.074219 0,-0.041288 -0.02947,-0.046342 -0.164062,-0.027344 C 10.001214,3.640037 9.9847462,3.636916 10.003045,3.586174 10.017575,3.54585 9.9998452,3.519931 9.9464052,3.498283 9.9046852,3.4814 9.8666952,3.450878 9.8604652,3.431877 9.8541652,3.412874 9.7286182,3.3209789 9.5811682,3.2267988 l -0.267578,-0.171875 -0.107422,0.070313 c -0.09481,0.062355 -0.126056,0.067122 -0.27539,0.035156 -0.119882,-0.025664 -0.203806,-0.026547 -0.294922,0 -0.329755,0.096094 -0.6697083,0.075624 -0.7050783,-0.042969 -0.02241,-0.075155 -0.03386,-0.074148 -0.396485,0.00781 -0.244218,0.055212 -0.320312,0.089191 -0.320312,0.1484374 0,0.028349 -0.03913,0.061524 -0.08789,0.072266 -0.231519,0.050995 -0.278912,0.072123 -0.279297,0.125 -6.03e-4,0.082058 -0.03591,0.1066331 -0.201172,0.1445312 -0.123534,0.028331 -0.152535,0.049775 -0.166015,0.1230469 -0.02919,0.1586762 -0.555235,0.5894025 -0.634766,0.5195312 -0.0067,-0.00596 0.01228,-0.049055 0.04102,-0.095703 0.07186,-0.1166974 0.06557,-0.15625 -0.02539,-0.15625 -0.04891,0 -0.101854,-0.034834 -0.142578,-0.095703 l -0.06445,-0.097656 0.103515,-0.1074219 c 0.05716,-0.058966 0.118324,-0.1074219 0.136719,-0.1074219 0.06379,0 0.138672,-0.1248306 0.138672,-0.2304688 0,-0.093156 0.01846,-0.1144799 0.144531,-0.1738281 0.124617,-0.058658 0.142578,-0.080801 0.142578,-0.1699219 0,-0.077192 -0.02101,-0.1141823 -0.08594,-0.1503906 -0.08538,-0.0476 -0.08133,-0.049396 0.220703,-0.1523437 0.15404,-0.052507 0.313341,-0.082261 0.470703,-0.1210938 z m 1.9218753,1.6875 c 0.101729,-0.00624 0.206865,0.017411 0.308594,0.072266 0.09068,0.048893 0.182282,0.087891 0.205078,0.087891 0.0643,0 0.281454,0.1327137 0.431641,0.2636718 0.152271,0.132777 0.179553,0.2617829 0.07617,0.3613282 -0.04219,0.040621 -0.06658,0.1279428 -0.08203,0.2949218 -0.02772,0.2994504 -0.0075,0.3583044 0.128907,0.40625 0.06063,0.021293 0.1093748,0.050278 0.1093748,0.064453 0,0.019447 -0.3431808,0.1413133 -0.3906248,0.1386718 -0.0047,-2.719e-4 -0.07004,-0.033638 -0.144532,-0.074219 -0.0745,-0.040583 -0.144175,-0.1008327 -0.154296,-0.1347656 -0.01017,-0.033934 -0.04525,-0.076986 -0.07813,-0.095703 -0.03782,-0.021539 -0.06684,-0.089763 -0.08007,-0.1835941 C 9.1590432,5.3620765 9.1327952,5.3215846 8.9991392,5.2131282 8.9129592,5.1431852 8.7898732,5.0584894 8.7257012,5.023675 8.5831852,4.9463571 8.4600772,4.8265803 8.4600772,4.7658626 c 0,-0.090135 -0.06878,-0.042257 -0.117188,0.082031 -0.0273,0.070082 -0.05317,0.1324855 -0.05859,0.1386719 -0.01945,0.022156 -0.1607273,-0.072699 -0.2128903,-0.1425781 -0.04626,-0.061964 -0.04769,-0.082321 -0.0098,-0.1601563 0.02392,-0.049213 0.03619,-0.1182056 0.02734,-0.1542969 -0.02726,-0.1109505 0.2759313,-0.202569 0.3300783,-0.099609 0.02239,0.042591 0.04362,0.038761 0.138672,-0.033203 0.08781,-0.066488 0.187334,-0.1031317 0.289062,-0.109375 z m -2.6796873,0.078125 c 0.267769,-0.028077 0.338507,-0.00606 0.363281,0.1113281 0.06423,0.3043177 0.0823,0.3408942 0.212891,0.453125 0.197573,0.1697758 0.510067,0.4023438 0.541015,0.4023438 0.0512,0 0.02629,-0.08676 -0.03711,-0.1289062 -0.03512,-0.023342 -0.06445,-0.062911 -0.06445,-0.087891 0,-0.024977 -0.02939,-0.071703 -0.06445,-0.1054687 -0.07502,-0.072244 -0.04347,-0.1353601 0.08594,-0.1699219 0.06637,-0.017728 0.100377,-0.00255 0.167969,0.076172 0.04668,0.05439 0.104783,0.1066788 0.128906,0.1152344 0.0256,0.00909 0.05193,0.085653 0.0625,0.1835937 0.0148,0.1373114 0.029,0.1679687 0.08008,0.1679687 0.04024,0 0.0699,-0.031296 0.08203,-0.085937 0.03036,-0.1368864 0.11939,-0.1269861 0.144532,0.015625 0.01565,0.088806 0.04124,0.1260842 0.0957,0.140625 0.124612,0.03328 0.141474,-0.014738 0.04297,-0.1269532 -0.088267,-0.1005416 -0.091323,-0.1088521 -0.041023,-0.1679689 0.0633,-0.074443 0.132641,-0.063631 0.4179693,0.072266 0.138015,0.065733 0.211544,0.1242203 0.246093,0.1953125 0.02714,0.055857 0.09262,0.1174585 0.144532,0.1367188 0.05191,0.019261 0.115337,0.070993 0.142578,0.1152343 0.04507,0.073188 0.04441,0.093324 -0.0059,0.2070313 -0.06421,0.1455273 -0.0921,0.1504225 -0.402343,0.070312 l -0.220703,-0.058594 0.08398,-0.070312 c 0.106437,-0.090312 0.11272,-0.2328146 0.01367,-0.3066406 -0.09036,-0.06735 -0.187686,-0.069424 -0.164063,-0.00391 0.01118,0.030999 -0.05726,0.1101545 -0.1894533,0.2207031 -0.266308,0.2227017 -0.373047,0.3732914 -0.373047,0.5234375 0,0.1413213 0.03889,0.1787595 0.251953,0.2460937 0.132928,0.042006 0.163933,0.065964 0.164063,0.1269531 2.06e-4,0.097819 0.1365953,0.2802402 0.1855473,0.2480469 0.02048,-0.013462 0.03711,-0.058732 0.03711,-0.1015625 0,-0.04283 0.01541,-0.1272292 0.03516,-0.1875 0.02657,-0.08113 0.02657,-0.1201561 0,-0.1484375 -0.05563,-0.059185 -0.04602,-0.4197782 0.01172,-0.4433593 0.06368,-0.026 0.302074,0.06577 0.384766,0.1484374 0.03666,0.036641 0.132533,0.079728 0.21289,0.095703 0.197263,0.039216 0.56836,0.3224236 0.56836,0.4335937 0,0.022598 0.0995,0.1192302 0.220703,0.2148438 0.2744268,0.216487 0.3021328,0.2734375 0.132813,0.2734375 -0.101306,0 -0.141313,-0.020554 -0.222657,-0.1191406 -0.05451,-0.06606 -0.09766,-0.1351743 -0.09766,-0.1523438 0,-0.017168 -0.03959,-0.010201 -0.08789,0.015625 -0.0483,0.025818 -0.150214,0.065232 -0.224609,0.085937 -0.07441,0.020705 -0.174113,0.073681 -0.222656,0.1191406 -0.09495,0.088924 -0.06152,0.1176801 0.04102,0.035156 0.0899,-0.072359 0.198635,-0.064914 0.222657,0.015625 0.01501,0.050267 0.04728,0.068359 0.126953,0.068359 0.126466,0 0.180736,0.065017 0.09766,0.1171874 -0.03161,0.019843 -0.105946,0.069277 -0.166016,0.1113282 -0.06006,0.04205 -0.152037,0.078125 -0.203125,0.078125 -0.06368,0 -0.111062,0.025939 -0.15039,0.085937 -0.03155,0.04814 -0.103903,0.1386811 -0.160157,0.2011719 -0.117082,0.1300632 -0.199218,0.3233157 -0.199218,0.4609374 0,0.077045 -0.03384,0.1176838 -0.179688,0.2207032 -0.229763,0.1623161 -0.2987413,0.312572 -0.222622,0.4824273 0.06523,0.1455486 0.06257,0.2006022 -0.0059,0.2285157 -0.03835,0.015661 -0.07426,-0.00585 -0.1191413,-0.072266 -0.174558,-0.25834 -0.286994,-0.3134345 -0.533203,-0.2597656 -0.084,0.018312 -0.171028,0.020932 -0.193359,0.00586 -0.02233,-0.015082 -0.108594,-0.029009 -0.191407,-0.029297 -0.391114,-0.00136 -0.551478,0.5208451 -0.222656,0.7246091 0.128442,0.07959 0.260259,0.08489 0.310547,0.01172 0.05678,-0.08263 0.18086,-0.120227 0.263672,-0.08008 0.08294,0.04021 0.08418,0.06078 0.02344,0.242188 -0.02461,0.07352 -0.03815,0.146857 -0.0293,0.162109 0.0088,0.01525 0.07554,0.02734 0.146485,0.02734 0.164877,0 0.345703,0.09017 0.345703,0.1718748 0,0.03403 -0.0142,0.100719 -0.03125,0.148438 -0.02548,0.07134 -0.01873,0.09896 0.03906,0.15625 0.07054,0.06991 0.09661,0.07886 0.3203133,0.117187 0.101232,0.01735 0.141118,0.0049 0.240234,-0.07617 0.187123,-0.15306 0.259722,-0.174819 0.398438,-0.123047 0.08421,0.03143 0.144571,0.03463 0.201172,0.01172 0.04459,-0.01803 0.155032,-0.03275 0.246093,-0.0332 0.09105,-4.45e-4 0.220984,-0.01491 0.28711,-0.03125 0.09547,-0.02359 0.163219,-0.01335 0.3339838,0.05078 0.159975,0.06008 0.28476,0.0815 0.484375,0.08203 l 0.267578,0 0.115235,0.132813 0.115234,0.130859 0.21875,-0.03125 c 0.119936,-0.0173 0.305355,-0.06034 0.412109,-0.0957 0.174326,-0.05774 0.201685,-0.05852 0.283203,-0.01367 0.04992,0.02747 0.0918,0.05848 0.0918,0.07031 0,0.01183 -0.05931,0.104229 -0.130859,0.205078 -0.136295,0.192094 -0.219855,0.37426 -0.220703,0.476563 -0.0011,0.14109 -0.979718,0.708483 -1.591797,0.923828 -0.2313578,0.08141 -1.0044208,0.275391 -1.0996088,0.275391 -0.0091,0 -0.02495,-0.02447 -0.03516,-0.05273 -0.01017,-0.02825 -0.0019,-0.08748 0.01758,-0.132813 0.04374,-0.102127 0.01624,-0.189453 -0.06055,-0.189453 -0.03188,0 -0.135305,-0.08301 -0.230469,-0.185547 -0.09516,-0.102539 -0.264403,-0.243675 -0.375,-0.3125 -0.1922943,-0.119672 -0.2011723,-0.131207 -0.2011723,-0.257813 0,-0.175794 0.04471,-0.252267 0.1757813,-0.310547 0.08543,-0.03799 0.112541,-0.07513 0.128906,-0.167968 0.0381,-0.216106 0.01776,-0.24255 -0.177734,-0.244141 -0.09624,-7.86e-4 -0.2502513,-0.02931 -0.3417973,-0.0625 -0.137378,-0.04982 -0.1794,-0.08586 -0.240189,-0.203129 -0.101039,-0.194925 -0.303461,-0.324366 -0.736328,-0.4746098 -0.27825,-0.09658 -0.408544,-0.163378 -0.548828,-0.279296 -0.101192,-0.08362 -0.201489,-0.152344 -0.222657,-0.152344 -0.02118,0 -0.06906,-0.03467 -0.107422,-0.07813 -0.05171,-0.058577 -0.06439,-0.1059979 -0.05078,-0.1796876 0.01353,-0.073267 -0.01156,-0.1574942 -0.0918,-0.3203126 -0.05988,-0.1214772 -0.127682,-0.2935593 -0.15039,-0.3828124 -0.03785,-0.1487969 -0.07981,-0.2210343 -0.111328,-0.1875 -0.03246,0.034535 0.07973,0.414887 0.144531,0.4882812 0.06354,0.071967 0.06614,0.082031 0.01758,0.082031 -0.122925,0 -0.227184,-0.1780313 -0.367187,-0.6269531 l -0.138672,-0.4433593 0.03906,-0.3378907 c 0.03983,-0.3499309 0.11374,-0.5595876 0.283203,-0.7988281 0.07112,-0.1004218 0.08482,-0.156577 0.08789,-0.3574219 0.0023,-0.1479722 0.03551,-0.3517323 0.08789,-0.5390625 0.09337,-0.3339533 0.100402,-0.4051607 0.05078,-0.5566406 -0.03433,-0.1047334 -0.14885,-0.1757831 -0.453125,-0.2792969 -0.066,-0.022451 -0.134917,-0.068863 -0.152344,-0.1035156 -0.04999,-0.099363 -0.03593,-0.1137928 0.04883,-0.054687 0.116109,0.080954 0.159359,0.068252 0.203125,-0.060547 0.0491,-0.1444708 0.163125,-0.2281735 0.298828,-0.2167969 0.08033,0.00673 0.111368,-0.00645 0.134766,-0.0625 0.02512,-0.060184 0.06757,-0.076778 0.248047,-0.095703 z m 6.1894531,0.082031 c 0.0026,0.083697 0.02748,0.1372585 0.0957,0.2050781 0.144638,0.1437751 0.12216,0.1963529 -0.0957,0.2363281 l -0.113281,0.021484 0.103515,0.058594 c 0.126397,0.071359 0.108567,0.1582031 -0.03125,0.1582031 -0.08867,0 -0.09371,0.00753 -0.07422,0.09375 0.01161,0.051392 0.03319,0.1474802 0.04687,0.2128906 0.02529,0.1208541 0.166037,0.3840229 0.226563,0.4238281 0.0218,0.014332 0.0332,-0.060243 0.0332,-0.2148437 0,-0.2475827 0.0396,-0.3314725 0.138672,-0.2910157 0.08341,0.034066 0.06569,-0.1475564 -0.02734,-0.2773437 -0.086,-0.1199823 -0.102324,-0.1835938 -0.04492,-0.1835937 0.01843,0 0.01541,-0.052145 0.01172,-0.1054688 A 5.6640625,5.5977712 0 0 0 12.356561,4.4475032 Z m -1.357422,0.339844 c 0.02548,-0.021006 0.08694,-0.00569 0.173828,0.056641 0.06116,0.043874 0.12405,0.080078 0.138672,0.080078 0.01462,0 0.09691,0.032586 0.183594,0.072266 0.149936,0.068637 0.158203,0.078267 0.158203,0.203125 l 0,0.1308594 -0.164063,-0.068359 c -0.183983,-0.07717 -0.217161,-0.071102 -0.123046,0.019531 0.0629,0.060587 0.08614,0.1525934 0.03906,0.1523437 -0.01316,-7.15e-5 -0.06974,-0.030546 -0.125,-0.066406 -0.06372,-0.041338 -0.113531,-0.112861 -0.138672,-0.1953124 -0.02181,-0.071529 -0.06691,-0.1691431 -0.09961,-0.21875 -0.0572,-0.086806 -0.06844,-0.1450094 -0.04297,-0.1660157 z m -0.6875,0.060547 c 0.0405,-0.00497 0.07854,0.00226 0.107422,0.025391 0.07701,0.061666 0.04796,0.1999363 -0.06836,0.3300782 -0.09839,0.1100633 -0.106988,0.112926 -0.193359,0.035156 -0.03632,-0.032705 -0.0755,-0.097365 -0.08594,-0.1445312 -0.02414,-0.1090615 0.11873,-0.2311956 0.240234,-0.2460938 z m 2.203125,1.1796875 c -0.01756,0.01155 -0.03125,0.044234 -0.03125,0.072266 0,0.028032 0.01367,0.0428 0.03125,0.03125 0.01757,-0.01155 0.0332,-0.044234 0.0332,-0.072266 0,-0.028032 -0.01564,-0.042801 -0.0332,-0.03125 z M 7.9346859,9.4650812 c 0.04149,-0.01695 0.4428033,0.06236 0.7167973,0.142578 0.110006,0.03221 0.100795,0.11799 -0.01563,0.142578 -0.06986,0.01475 -0.145506,-0.0078 -0.277344,-0.08008 -0.09943,-0.05452 -0.2455773,-0.105566 -0.3261723,-0.115234 -0.148431,-0.0178 -0.186893,-0.05341 -0.09766,-0.08984 z m 1.1250003,0.197266 c 0.03239,0.0072 0.06137,0.02481 0.101562,0.05859 0.05142,0.04321 0.09474,0.09145 0.0957,0.105468 0.0025,0.03599 -0.318504,0.02653 -0.408203,-0.01172 -0.107754,-0.04596 -0.06845,-0.11204 0.08594,-0.144531 0.05751,-0.0121 0.09261,-0.015 0.125,-0.0078 z"
     id="path3588" />
</svg>
