<?xml version="1.0" encoding="UTF-8" standalone="no"?>
<!-- Generated by IcoMoon.io -->

<svg
   xmlns:dc="http://purl.org/dc/elements/1.1/"
   xmlns:cc="http://creativecommons.org/ns#"
   xmlns:rdf="http://www.w3.org/1999/02/22-rdf-syntax-ns#"
   xmlns:svg="http://www.w3.org/2000/svg"
   xmlns="http://www.w3.org/2000/svg"
   xmlns:sodipodi="http://sodipodi.sourceforge.net/DTD/sodipodi-0.dtd"
   xmlns:inkscape="http://www.inkscape.org/namespaces/inkscape"
   version="1.1"
   width="16"
   height="16"
   viewBox="0 0 16 16"
   id="svg2"
   inkscape:version="0.91 r13725"
   sodipodi:docname="Knowledge.svg">
  <metadata
     id="metadata12">
    <rdf:RDF>
      <cc:Work
         rdf:about="">
        <dc:format>image/svg+xml</dc:format>
        <dc:type
           rdf:resource="http://purl.org/dc/dcmitype/StillImage" />
        <dc:title></dc:title>
      </cc:Work>
    </rdf:RDF>
  </metadata>
  <defs
     id="defs10" />
  <sodipodi:namedview
     pagecolor="#ffffff"
     bordercolor="#666666"
     borderopacity="1"
     objecttolerance="10"
     gridtolerance="10"
     guidetolerance="10"
     inkscape:pageopacity="0"
     inkscape:pageshadow="2"
     inkscape:window-width="1600"
     inkscape:window-height="821"
     id="namedview8"
     showgrid="false"
     inkscape:zoom="20.85965"
     inkscape:cx="-1.3637015"
     inkscape:cy="7.0348185"
     inkscape:window-x="-9"
     inkscape:window-y="-9"
     inkscape:window-maximized="1"
     inkscape:current-layer="svg2" />
  <g
     id="g3565"
     transform="translate(-0.30598613,-0.06756383)">
    <g
       transform="matrix(0.80933828,0,0,0.778329,-31.435477,3.2944323)"
       id="g3533">
      <path
         style="fill:#000000;fill-opacity:1;fill-rule:nonzero;stroke:none;stroke-opacity:1"
         d="m 42.189453,1.4257812 0,10.7734378 a 3.383903,1.340726 0 0 1 1.685547,-1.101563 3.383903,1.340726 0 0 1 3.386719,0.002 3.383903,1.340726 0 0 1 1.6875,1.16211 l 0,-10.8359378 -6.759766,0 z m 6.759766,10.8359378 -6.759766,-0.002 0,0.002 6.759766,0 z m -6.759766,-0.002 0,-0.06055 a 3.383903,1.340726 0 0 0 -0.0078,0.06055 l 0.0078,0 z"
         id="rect3514"
         inkscape:connector-curvature="0" />
      <path
         transform="scale(-1,-1)"
         d="m -42.181687,-1.4553878 a 3.383903,1.2549452 0 0 1 -1.693736,1.08719617 3.383903,1.2549452 0 0 1 -3.385685,-0.001147 3.383903,1.2549452 0 0 1 -1.688379,-1.08834162"
         sodipodi:open="true"
         sodipodi:end="3.1434191"
         sodipodi:start="0"
         sodipodi:ry="1.2549452"
         sodipodi:rx="3.383903"
         sodipodi:cy="-1.4553878"
         sodipodi:cx="-45.56559"
         sodipodi:type="arc"
         style="fill:#000000;fill-opacity:1;fill-rule:nonzero;stroke:none;stroke-opacity:1"
         id="path3528" />
    </g>
    <g
       transform="matrix(0.80933828,0,0,0.778329,-25.504944,3.3209808)"
       id="g3537">
      <path
         inkscape:connector-curvature="0"
         id="path3539"
         d="m 42.189453,1.4257812 0,10.7734378 a 3.383903,1.340726 0 0 1 1.685547,-1.101563 3.383903,1.340726 0 0 1 3.386719,0.002 3.383903,1.340726 0 0 1 1.6875,1.16211 l 0,-10.8359378 -6.759766,0 z m 6.759766,10.8359378 -6.759766,-0.002 0,0.002 6.759766,0 z m -6.759766,-0.002 0,-0.06055 a 3.383903,1.340726 0 0 0 -0.0078,0.06055 l 0.0078,0 z"
         style="fill:#000000;fill-opacity:1;fill-rule:nonzero;stroke:none;stroke-opacity:1" />
      <path
         id="path3541"
         style="fill:#000000;fill-opacity:1;fill-rule:nonzero;stroke:none;stroke-opacity:1"
         sodipodi:type="arc"
         sodipodi:cx="-45.56559"
         sodipodi:cy="-1.4553878"
         sodipodi:rx="3.383903"
         sodipodi:ry="1.2549452"
         sodipodi:start="0"
         sodipodi:end="3.1434191"
         sodipodi:open="true"
         d="m -42.181687,-1.4553878 a 3.383903,1.2549452 0 0 1 -1.693736,1.08719617 3.383903,1.2549452 0 0 1 -3.385685,-0.001147 3.383903,1.2549452 0 0 1 -1.688379,-1.08834162"
         transform="scale(-1,-1)" />
    </g>
  </g>
</svg>
