<?xml version="1.0" encoding="UTF-8" standalone="no"?>
<!-- Generated by IcoMoon.io -->

<svg
   xmlns:dc="http://purl.org/dc/elements/1.1/"
   xmlns:cc="http://creativecommons.org/ns#"
   xmlns:rdf="http://www.w3.org/1999/02/22-rdf-syntax-ns#"
   xmlns:svg="http://www.w3.org/2000/svg"
   xmlns="http://www.w3.org/2000/svg"
   xmlns:sodipodi="http://sodipodi.sourceforge.net/DTD/sodipodi-0.dtd"
   xmlns:inkscape="http://www.inkscape.org/namespaces/inkscape"
   version="1.1"
   width="16"
   height="16"
   viewBox="0 0 16 16"
   id="svg2"
   inkscape:version="0.91 r13725"
   sodipodi:docname="Local.svg">
  <metadata
     id="metadata12">
    <rdf:RDF>
      <cc:Work
         rdf:about="">
        <dc:format>image/svg+xml</dc:format>
        <dc:type
           rdf:resource="http://purl.org/dc/dcmitype/StillImage" />
        <dc:title></dc:title>
      </cc:Work>
    </rdf:RDF>
  </metadata>
  <defs
     id="defs10" />
  <sodipodi:namedview
     pagecolor="#ffffff"
     bordercolor="#666666"
     borderopacity="1"
     objecttolerance="10"
     gridtolerance="10"
     guidetolerance="10"
     inkscape:pageopacity="0"
     inkscape:pageshadow="2"
     inkscape:window-width="1600"
     inkscape:window-height="821"
     id="namedview8"
     showgrid="false"
     inkscape:zoom="20.85965"
     inkscape:cx="-1.3637015"
     inkscape:cy="7.0348185"
     inkscape:window-x="-9"
     inkscape:window-y="-9"
     inkscape:window-maximized="1"
     inkscape:current-layer="svg2" />
  <g
     id="g3811"
     transform="matrix(2.343333,0,0,2.3091517,-140.16672,-5.9844824)">
    <path
       id="rect3795"
       d="m 63.976562,3.8203125 -1.796874,1.03125 c -0.02578,0 -0.04688,0.021095 -0.04688,0.046875 l 0,0.7695313 0.01953,-0.00977 1.255859,0.625 c 0.01486,0.00738 0.03125,0.011728 0.03125,0.027344 l 0,1.8535156 2.458985,0 c 0.02578,0 0.04687,-0.021095 0.04687,-0.046875 l 0,-3.21875 c 10e-7,-0.02578 -0.02415,-0.034687 -0.04687,-0.046875 l -1.921876,-1.03125 z"
       style="fill:#000000;fill-opacity:1;fill-rule:nonzero;stroke:none;stroke-opacity:1"
       inkscape:connector-curvature="0" />
    <path
       sodipodi:nodetypes="scssssssss"
       inkscape:connector-curvature="0"
       id="path3807"
       d="m 60.711915,6.4048231 1.175052,-0.6246835 1.256778,0.6246835 c 0.01486,0.00738 0.03043,0.012572 0.03043,0.028188 l 0,1.9501825 c 0,0.015616 -0.01357,0.028188 -0.03043,0.028188 l -2.43183,0 c -0.01686,0 -0.03043,-0.012572 -0.03043,-0.028188 l 0,-1.9501825 c 0,-0.015616 0.01357,-0.028188 0.03043,-0.028188 z"
       style="fill:#000000;fill-opacity:1;fill-rule:nonzero;stroke:none;stroke-opacity:1" />
  </g>
</svg>
