<?xml version="1.0" encoding="UTF-8" standalone="no"?>
<!-- Generated by IcoMoon.io -->

<svg
   xmlns:dc="http://purl.org/dc/elements/1.1/"
   xmlns:cc="http://creativecommons.org/ns#"
   xmlns:rdf="http://www.w3.org/1999/02/22-rdf-syntax-ns#"
   xmlns:svg="http://www.w3.org/2000/svg"
   xmlns="http://www.w3.org/2000/svg"
   xmlns:sodipodi="http://sodipodi.sourceforge.net/DTD/sodipodi-0.dtd"
   xmlns:inkscape="http://www.inkscape.org/namespaces/inkscape"
   version="1.1"
   width="16"
   height="16"
   viewBox="0 0 16 16"
   id="svg2"
   inkscape:version="0.91 r13725"
   sodipodi:docname="Medium.svg">
  <metadata
     id="metadata12">
    <rdf:RDF>
      <cc:Work
         rdf:about="">
        <dc:format>image/svg+xml</dc:format>
        <dc:type
           rdf:resource="http://purl.org/dc/dcmitype/StillImage" />
        <dc:title></dc:title>
      </cc:Work>
    </rdf:RDF>
  </metadata>
  <defs
     id="defs10" />
  <sodipodi:namedview
     pagecolor="#ffffff"
     bordercolor="#666666"
     borderopacity="1"
     objecttolerance="10"
     gridtolerance="10"
     guidetolerance="10"
     inkscape:pageopacity="0"
     inkscape:pageshadow="2"
     inkscape:window-width="1600"
     inkscape:window-height="821"
     id="namedview8"
     showgrid="false"
     inkscape:zoom="20.85965"
     inkscape:cx="-1.3637015"
     inkscape:cy="7.0348185"
     inkscape:window-x="-9"
     inkscape:window-y="-9"
     inkscape:window-maximized="1"
     inkscape:current-layer="svg2" />
  <path
     inkscape:connector-curvature="0"
     id="path4078"
     d="M 8.0521446,3.4433859 3.9021027,5.6725718 c -0.05955,0 -0.106703,0.04451 -0.106703,0.1002461 l 0,6.9594131 c 0,0.05573 0.04718,0.100245 0.106703,0.100245 l 8.5894723,0 c 0.05955,0 0.108315,-0.04452 0.108315,-0.100245 l 0,-6.9594131 c 0,-0.05573 -0.05588,-0.07391 -0.108315,-0.1002461 L 8.0521446,3.4433859 Z m 0.0372,1.2607139 3.2996634,1.6311121 c 0.039,0.01926 0.07921,0.0323 0.07921,0.07306 l 0,5.0904301 c 0,0.04076 -0.03495,0.07306 -0.07921,0.07306 l -6.3826963,0 c -0.04425,0 -0.08083,-0.0323 -0.08083,-0.07306 l 0,-5.0904301 c 0,-0.04076 0.0366,-0.07306 0.08083,-0.07306 L 8.0893446,4.7040998 Z"
     style="fill:#000000;fill-opacity:1;fill-rule:nonzero;stroke:none;stroke-opacity:1" />
</svg>
