<?xml version="1.0" encoding="UTF-8" standalone="no"?>
<!-- Generated by IcoMoon.io -->

<svg
   xmlns:dc="http://purl.org/dc/elements/1.1/"
   xmlns:cc="http://creativecommons.org/ns#"
   xmlns:rdf="http://www.w3.org/1999/02/22-rdf-syntax-ns#"
   xmlns:svg="http://www.w3.org/2000/svg"
   xmlns="http://www.w3.org/2000/svg"
   xmlns:sodipodi="http://sodipodi.sourceforge.net/DTD/sodipodi-0.dtd"
   xmlns:inkscape="http://www.inkscape.org/namespaces/inkscape"
   version="1.1"
   width="16"
   height="16"
   viewBox="0 0 16 16"
   id="svg2"
   inkscape:version="0.91 r13725"
   sodipodi:docname="Money.svg">
  <metadata
     id="metadata12">
    <rdf:RDF>
      <cc:Work
         rdf:about="">
        <dc:format>image/svg+xml</dc:format>
        <dc:type
           rdf:resource="http://purl.org/dc/dcmitype/StillImage" />
        <dc:title></dc:title>
      </cc:Work>
    </rdf:RDF>
  </metadata>
  <defs
     id="defs10" />
  <sodipodi:namedview
     pagecolor="#ffffff"
     bordercolor="#666666"
     borderopacity="1"
     objecttolerance="10"
     gridtolerance="10"
     guidetolerance="10"
     inkscape:pageopacity="0"
     inkscape:pageshadow="2"
     inkscape:window-width="1600"
     inkscape:window-height="821"
     id="namedview8"
     showgrid="false"
     inkscape:zoom="20.85965"
     inkscape:cx="-1.3637015"
     inkscape:cy="7.0348185"
     inkscape:window-x="-9"
     inkscape:window-y="-9"
     inkscape:window-maximized="1"
     inkscape:current-layer="svg2" />
  <g
     transform="matrix(2.3828929,0,0,2.6727117,-142.88052,-8.7426632)"
     id="g3913">
    <path
       inkscape:connector-curvature="0"
       style="fill:#000000;fill-opacity:1;fill-rule:nonzero;stroke:none;stroke-opacity:1"
       d="M 61.405141,6.6883039 A 1.8854772,0.87570262 0 0 0 60.93728,7.265245 1.8854772,0.87570262 0 0 0 62.823006,8.1408726 1.8854772,0.87570262 0 0 0 64.708733,7.265245 1.8854772,0.87570262 0 0 0 64.670935,7.094984 1.8854772,0.87570262 0 0 1 63.25307,7.3936706 1.8854772,0.87570262 0 0 1 61.405142,6.6883039 Z"
       id="path3915" />
    <ellipse
       ry="0.87570262"
       rx="1.8854772"
       cy="5.4563241"
       cx="63.899082"
       id="ellipse3917"
       style="fill:#000000;fill-opacity:1;fill-rule:nonzero;stroke:none;stroke-opacity:1" />
    <path
       id="path3919"
       d="M 61.942721,5.7948721 A 1.8854772,0.87570261 0 0 0 61.474859,6.3718132 1.8854772,0.87570261 0 0 0 63.360586,7.2474408 1.8854772,0.87570261 0 0 0 65.246312,6.3718132 1.8854772,0.87570261 0 0 0 65.20851,6.2015523 1.8854772,0.87570261 0 0 1 63.790646,6.5002387 1.8854772,0.87570261 0 0 1 61.942718,5.7948721 Z"
       style="fill:#000000;fill-opacity:1;fill-rule:nonzero;stroke:none;stroke-opacity:1"
       inkscape:connector-curvature="0" />
  </g>
</svg>
