<?xml version="1.0" encoding="UTF-8" standalone="no"?>
<!-- Generated by IcoMoon.io -->

<svg
   xmlns:dc="http://purl.org/dc/elements/1.1/"
   xmlns:cc="http://creativecommons.org/ns#"
   xmlns:rdf="http://www.w3.org/1999/02/22-rdf-syntax-ns#"
   xmlns:svg="http://www.w3.org/2000/svg"
   xmlns="http://www.w3.org/2000/svg"
   xmlns:sodipodi="http://sodipodi.sourceforge.net/DTD/sodipodi-0.dtd"
   xmlns:inkscape="http://www.inkscape.org/namespaces/inkscape"
   version="1.1"
   width="16"
   height="16"
   viewBox="0 0 16 16"
   id="svg2"
   inkscape:version="0.91 r13725"
   sodipodi:docname="Poverty.svg">
  <metadata
     id="metadata12">
    <rdf:RDF>
      <cc:Work
         rdf:about="">
        <dc:format>image/svg+xml</dc:format>
        <dc:type
           rdf:resource="http://purl.org/dc/dcmitype/StillImage" />
        <dc:title></dc:title>
      </cc:Work>
    </rdf:RDF>
  </metadata>
  <defs
     id="defs10" />
  <sodipodi:namedview
     pagecolor="#ffffff"
     bordercolor="#666666"
     borderopacity="1"
     objecttolerance="10"
     gridtolerance="10"
     guidetolerance="10"
     inkscape:pageopacity="0"
     inkscape:pageshadow="2"
     inkscape:window-width="1600"
     inkscape:window-height="821"
     id="namedview8"
     showgrid="false"
     inkscape:zoom="20.85965"
     inkscape:cx="-1.3637015"
     inkscape:cy="7.0348185"
     inkscape:window-x="-9"
     inkscape:window-y="-9"
     inkscape:window-maximized="1"
     inkscape:current-layer="svg2" />
  <g
     transform="matrix(0.93115564,0,0,1.2376574,-54.928677,10.196899)"
     id="g3973">
    <g
       id="g3980">
      <path
         style="fill:#000000;fill-opacity:1;fill-rule:nonzero;stroke:none;stroke-opacity:1"
         d="M 66.576736,6.1789463 C 66.96642,6.7601592 65.477955,7.7299085 64.179503,7.7299086 62.944824,7.6448146 61.966857,7.0109173 61.065532,6.6208944 60.923295,6.3737618 60.957023,5.9293905 61.146812,5.7380503 c 0.195113,-0.1967076 0.641692,-0.1152415 1.217807,-0.2292934 0.611492,-0.1210548 1.729436,-0.6071467 2.148189,-0.206154 0.07616,0.072934 0.155211,0.283166 0.04617,0.3812363 -0.181547,0.1633008 -0.459948,0.013595 -0.689176,0.126446 -0.264015,0.1299759 -0.298266,0.3155292 -0.244477,0.4190605 0.06541,0.1258922 0.222546,0.3508835 0.499168,0.4017053 0.821708,0.1232042 2.191256,-0.841349 2.452233,-0.4521043 z"
         id="path3971"
         inkscape:connector-curvature="0"
         sodipodi:nodetypes="cccsssssscsc"
         transform="matrix(2.5165857,0,0,1.8657438,-92.787103,-12.606142)" />
      <ellipse
         style="fill:#000000;fill-opacity:1;fill-rule:nonzero;stroke:none;stroke-opacity:1"
         id="ellipse3975"
         cx="72.019073"
         cy="-5.0591283"
         rx="1.9173076"
         ry="1.0135759" />
      <path
         inkscape:connector-curvature="0"
         style="fill:#000000;fill-opacity:1;fill-rule:nonzero;stroke:none;stroke-opacity:1"
         d="m 70.029684,-4.6672791 a 1.9173076,1.0135759 0 0 0 -0.47576,0.667777 1.9173076,1.0135759 0 0 0 1.917562,1.013489 1.9173076,1.0135759 0 0 0 1.91756,-1.013489 1.9173076,1.0135759 0 0 0 -0.03844,-0.197067 1.9173076,1.0135759 0 0 1 -1.4418,0.345712 1.9173076,1.0135759 0 0 1 -1.879125,-0.816422 z"
         id="path3977" />
    </g>
  </g>
</svg>
