<?xml version="1.0" encoding="UTF-8" standalone="no"?>
<!-- Generated by IcoMoon.io -->

<svg
   xmlns:dc="http://purl.org/dc/elements/1.1/"
   xmlns:cc="http://creativecommons.org/ns#"
   xmlns:rdf="http://www.w3.org/1999/02/22-rdf-syntax-ns#"
   xmlns:svg="http://www.w3.org/2000/svg"
   xmlns="http://www.w3.org/2000/svg"
   xmlns:sodipodi="http://sodipodi.sourceforge.net/DTD/sodipodi-0.dtd"
   xmlns:inkscape="http://www.inkscape.org/namespaces/inkscape"
   version="1.1"
   width="16"
   height="16"
   viewBox="0 0 16 16"
   id="svg2"
   inkscape:version="0.91 r13725"
   sodipodi:docname="Medium.svg">
  <metadata
     id="metadata12">
    <rdf:RDF>
      <cc:Work
         rdf:about="">
        <dc:format>image/svg+xml</dc:format>
        <dc:type
           rdf:resource="http://purl.org/dc/dcmitype/StillImage" />
        <dc:title></dc:title>
      </cc:Work>
    </rdf:RDF>
  </metadata>
  <defs
     id="defs10" />
  <sodipodi:namedview
     pagecolor="#ffffff"
     bordercolor="#666666"
     borderopacity="1"
     objecttolerance="10"
     gridtolerance="10"
     guidetolerance="10"
     inkscape:pageopacity="0"
     inkscape:pageshadow="2"
     inkscape:window-width="1600"
     inkscape:window-height="821"
     id="namedview8"
     showgrid="false"
     inkscape:zoom="20.85965"
     inkscape:cx="-1.3637015"
     inkscape:cy="7.0348185"
     inkscape:window-x="-9"
     inkscape:window-y="-9"
     inkscape:window-maximized="1"
     inkscape:current-layer="svg2" />
  <path
     style="fill:#000000;fill-opacity:1;fill-rule:nonzero;stroke:none;stroke-opacity:1"
     d="M 8.0790125,4.425268 4.6953227,6.2223594 c -0.048551,0 -0.087002,0.03588 -0.087002,0.08081 l 0,5.6104326 c 0,0.04493 0.038473,0.08081 0.087002,0.08081 l 7.0033293,0 c 0.04855,0 0.08832,-0.03589 0.08832,-0.08081 l 0,-5.6104326 c 0,-0.04493 -0.04556,-0.059581 -0.08832,-0.08081 L 8.0790125,4.425268 Z m 0.030331,1.0163435 2.6903425,1.3149448 c 0.0318,0.015521 0.06458,0.026044 0.06458,0.058893 l 0,4.1037237 c 0,0.03286 -0.02849,0.05889 -0.06458,0.05889 l -5.2040585,0 c -0.036081,0 -0.065901,-0.02603 -0.065901,-0.05889 l 0,-4.1037237 c 0,-0.032859 0.029841,-0.058893 0.065901,-0.058893 l 2.513716,-1.3149448 z"
     id="path4089"
     inkscape:connector-curvature="0" />
</svg>
