<?xml version="1.0" encoding="UTF-8" standalone="no"?>
<!-- Generated by IcoMoon.io -->

<svg
   xmlns:dc="http://purl.org/dc/elements/1.1/"
   xmlns:cc="http://creativecommons.org/ns#"
   xmlns:rdf="http://www.w3.org/1999/02/22-rdf-syntax-ns#"
   xmlns:svg="http://www.w3.org/2000/svg"
   xmlns="http://www.w3.org/2000/svg"
   xmlns:sodipodi="http://sodipodi.sourceforge.net/DTD/sodipodi-0.dtd"
   xmlns:inkscape="http://www.inkscape.org/namespaces/inkscape"
   version="1.1"
   width="16"
   height="16"
   viewBox="0 0 16 16"
   id="svg2"
   inkscape:version="0.91 r13725"
   sodipodi:docname="Volunteering.svg">
  <metadata
     id="metadata12">
    <rdf:RDF>
      <cc:Work
         rdf:about="">
        <dc:format>image/svg+xml</dc:format>
        <dc:type
           rdf:resource="http://purl.org/dc/dcmitype/StillImage" />
        <dc:title></dc:title>
      </cc:Work>
    </rdf:RDF>
  </metadata>
  <defs
     id="defs10" />
  <sodipodi:namedview
     pagecolor="#ffffff"
     bordercolor="#666666"
     borderopacity="1"
     objecttolerance="10"
     gridtolerance="10"
     guidetolerance="10"
     inkscape:pageopacity="0"
     inkscape:pageshadow="2"
     inkscape:window-width="1600"
     inkscape:window-height="821"
     id="namedview8"
     showgrid="false"
     inkscape:zoom="20.85965"
     inkscape:cx="-1.3637015"
     inkscape:cy="7.0348185"
     inkscape:window-x="-9"
     inkscape:window-y="-9"
     inkscape:window-maximized="1"
     inkscape:current-layer="svg2" />
  <path
     style="fill:#000000;fill-opacity:1;fill-rule:nonzero;stroke:none;stroke-opacity:1"
     d="m 13.273201,7.1364363 c -0.404128,3.2953567 -0.527329,3.3012867 -1.772308,5.2770447 -0.740559,1.184277 -0.655855,2.053802 -1.92702,2.070255 -1.6684033,0 -1.5762861,0.276725 -2.3719425,-0.483002 C 6.9702131,13.779482 6.0161437,12.644262 5.6960764,12.335656 4.2575052,10.948593 2.8468976,8.5049303 3.1682775,6.2309597 3.2400491,5.723136 4.6209182,6.9801515 4.6877689,7.7987546 4.7534711,8.6032163 5.3363174,9.5899524 5.7637699,8.9815369 6.2763069,8.2520147 4.8796835,3.0269532 5.6140971,2.5090499 6.2570015,2.0556792 6.9058598,6.3775184 7.599157,6.803101 8.1883397,7.1647725 8.0600831,5.7493848 8.0783097,4.6321456 8.0995003,3.3333739 8.1237879,1.7429723 8.5882121,1.7429723 c 0.3642943,0 0.6565395,1.6892151 0.7805133,3.0962064 0.095425,1.0829767 0.011744,1.9574447 0.2725138,2.0195201 0.3764098,0.089597 0.3402654,-0.9124157 0.4512138,-2.0478963 0.118187,-1.2095514 0.381406,-2.5614442 0.748793,-2.5990547 0.480638,-0.049209 0.4616,1.4361297 0.52785,2.7683909 0.05491,1.1042234 -0.130165,2.640373 0.346971,2.5511862 0.462601,-0.086472 0.338988,-2.2943983 0.83361,-3.003357 0.753471,-0.2637023 0.65439,1.8477874 0.723524,2.6084684 z"
     id="path4027"
     inkscape:connector-curvature="0"
     sodipodi:nodetypes="cccssssssssssssssscc" />
</svg>
