<?xml version="1.0" encoding="UTF-8" standalone="no"?>
<!-- Generated by IcoMoon.io -->

<svg
   xmlns:dc="http://purl.org/dc/elements/1.1/"
   xmlns:cc="http://creativecommons.org/ns#"
   xmlns:rdf="http://www.w3.org/1999/02/22-rdf-syntax-ns#"
   xmlns:svg="http://www.w3.org/2000/svg"
   xmlns="http://www.w3.org/2000/svg"
   xmlns:sodipodi="http://sodipodi.sourceforge.net/DTD/sodipodi-0.dtd"
   xmlns:inkscape="http://www.inkscape.org/namespaces/inkscape"
   version="1.1"
   width="16"
   height="16"
   viewBox="0 0 16 16"
   id="svg2"
   inkscape:version="0.91 r13725"
   sodipodi:docname="Women.svg">
  <metadata
     id="metadata12">
    <rdf:RDF>
      <cc:Work
         rdf:about="">
        <dc:format>image/svg+xml</dc:format>
        <dc:type
           rdf:resource="http://purl.org/dc/dcmitype/StillImage" />
        <dc:title></dc:title>
      </cc:Work>
    </rdf:RDF>
  </metadata>
  <defs
     id="defs10" />
  <sodipodi:namedview
     pagecolor="#ffffff"
     bordercolor="#666666"
     borderopacity="1"
     objecttolerance="10"
     gridtolerance="10"
     guidetolerance="10"
     inkscape:pageopacity="0"
     inkscape:pageshadow="2"
     inkscape:window-width="1600"
     inkscape:window-height="821"
     id="namedview8"
     showgrid="false"
     inkscape:zoom="20.85965"
     inkscape:cx="-1.3637015"
     inkscape:cy="7.0348185"
     inkscape:window-x="-9"
     inkscape:window-y="-9"
     inkscape:window-maximized="1"
     inkscape:current-layer="svg2" />
  <g
     transform="translate(-0.52757961,0.2937582)"
     id="g3495">
    <path
       inkscape:connector-curvature="0"
       id="path3396"
       d="M 8.390625,1.703125 A 4.3656039,4.169158 0 0 0 4.0234375,5.8710938 4.3656039,4.169158 0 0 0 8.390625,10.041016 4.3656039,4.169158 0 0 0 12.755859,5.8710938 4.3656039,4.169158 0 0 0 8.390625,1.703125 Z m 0,1.6582031 A 2.6290753,2.5107708 0 0 1 11.019531,5.8710938 2.6290753,2.5107708 0 0 1 8.390625,8.3828125 2.6290753,2.5107708 0 0 1 5.7617188,5.8710938 2.6290753,2.5107708 0 0 1 8.390625,3.3613281 Z"
       style="fill:#000000;fill-opacity:1;fill-rule:nonzero;stroke:none;stroke-opacity:1" />
    <g
       transform="matrix(1.0005993,0,0,0.95757556,-17.265081,-18.745258)"
       id="g3470">
      <rect
         ry="0.78411084"
         y="28.471151"
         x="24.712412"
         height="5.8095465"
         width="1.8542668"
         id="rect3404-4"
         style="fill:#000000;fill-opacity:1;fill-rule:nonzero;stroke:none;stroke-opacity:1"
         rx="0.78411084" />
      <rect
         ry="0.7246328"
         y="22.955111"
         x="-32.618256"
         height="5.3688684"
         width="1.8542668"
         id="rect3404-4-3"
         style="fill:#000000;fill-opacity:1;fill-rule:nonzero;stroke:none;stroke-opacity:1"
         transform="matrix(0,-1,1,0,0,0)"
         rx="0.7246328" />
    </g>
  </g>
</svg>
